<?xml version="1.0" encoding="utf-8"?>
<!-- Generator: Adobe Illustrator 19.0.0, SVG Export Plug-In . SVG Version: 6.00 Build 0)  -->
<svg version="1.1" id="Layer_1" xmlns="http://www.w3.org/2000/svg" xmlns:xlink="http://www.w3.org/1999/xlink" x="0px" y="0px"
	 viewBox="-1 3.7 495.3 495.3" style="enable-background:new -1 3.7 495.3 495.3;" xml:space="preserve">
<style type="text/css">
	.st0{fill:#6DAAE2;}
	.st1{fill:#ACD8F9;}
	.st2{fill:#C61469;}
	.st3{fill:#FF3F62;}
</style>
<g>
	<rect x="256.7" y="428.7" class="st0" width="40" height="70.3"/>
	<rect x="161.7" y="358.7" class="st1" width="40" height="70"/>
	<path class="st2" d="M246.7,122.6v236.1h164V122.6C330.7,143.3,288.7,132.9,246.7,122.6z"/>
	<path class="st0" d="M246.7,3.7v118.9c42,10.4,84,20.8,164,0V3.7H246.7z"/>
	<path class="st3" d="M246.7,122.6c-42-10.4-84.1-20.8-164,0v236.1h139v70h110v-70h-85L246.7,122.6L246.7,122.6z"/>
	<path class="st1" d="M246.7,122.6V3.7h-164v118.9C162.6,101.8,204.6,112.2,246.7,122.6z"/>
</g>
</svg>
