<?xml version="1.0" encoding="utf-8"?>
<!-- Generator: Adobe Illustrator 19.0.0, SVG Export Plug-In . SVG Version: 6.00 Build 0)  -->
<svg version="1.1" id="Layer_1" xmlns="http://www.w3.org/2000/svg" xmlns:xlink="http://www.w3.org/1999/xlink" x="0px" y="0px"
	 viewBox="0 0.4 499.6 499.6" style="enable-background:new 0 0.4 499.6 499.6;" xml:space="preserve">
<style type="text/css">
	.st0{fill:#FF3F62;}
	.st1{fill:#C61469;}
</style>
<g>
	<polygon class="st0" points="43.3,429.1 99.7,448.9 130.9,500 249.8,353.2 177.3,263.7 	"/>
	<path class="st1" d="M322.3,263.7l-72.5-89.5l-18.4-22.7c-3.5-4.3-5.2-9.3-5.2-14.8c0-13,10.6-23.6,23.6-23.6V0.4
		c-75.2,0-136.3,61.1-136.3,136.3c0,31.1,10.8,61.6,30.4,85.8l33.4,41.2l72.5,89.5L368.7,500l31.1-51.1l56.4-19.9L322.3,263.7z"/>
	<path class="st0" d="M273.4,136.7c0,5.6-1.8,10.5-5.2,14.8l-18.4,22.7l72.5,89.5l33.4-41.2c19.6-24.2,30.4-54.6,30.4-85.8
		C386.1,61.5,325,0.4,249.8,0.4v112.7C262.8,113.1,273.4,123.7,273.4,136.7z"/>
</g>
</svg>
