<?xml version="1.0" encoding="utf-8"?>
<!-- Generator: Adobe Illustrator 19.0.0, SVG Export Plug-In . SVG Version: 6.00 Build 0)  -->
<svg version="1.1" id="Layer_1" xmlns="http://www.w3.org/2000/svg" xmlns:xlink="http://www.w3.org/1999/xlink" x="0px" y="0px"
	 viewBox="-4 6 490 490" style="enable-background:new -4 6 490 490;" xml:space="preserve">
<style type="text/css">
	.st0{fill:#ACD8F9;}
	.st1{fill:#6DAAE2;}
	.st2{fill:#FF3F62;}
	.st3{fill:#C61469;}
	.st4{fill:#4F91C1;}
</style>
<g>
	<path class="st0" d="M322.5,211.2v-41.7h-41.7v-40h41.7V87.8h20V6C263.4,6,199,70.4,199,149.5c0,25.6,6.7,50.4,19.5,72.3
		l-25.9,77.6l77.6-25.9c21.9,12.8,46.7,19.5,72.3,19.5v-81.8L322.5,211.2L322.5,211.2z"/>
	<path class="st1" d="M342.5,6v81.8h20v41.7h41.7v40h-41.7v41.7h-20V293c79.1,0,143.5-64.4,143.5-143.5S421.6,6,342.5,6z"/>
	<path class="st2" d="M138.5,246.9l33.7-33.7L59.9,100.9l-14.1,13c-0.5,0.4-11.3,10.5-22.6,24.5C6.8,158.7-2.2,177.2-3.7,193.4
		C-8,239.7,35,315.4,105.8,386.2l86-86L138.5,246.9z"/>
	<path class="st3" d="M245.1,353.5l-53.3-53.3l-86,86c31.9,31.9,65.8,59,98.2,78.6c23.6,14.3,58.1,31.2,87.8,31.2
		c2.3,0,4.6-0.1,6.8-0.3c16.2-1.5,34.7-10.6,55.1-26.9c14-11.3,24-22.1,24.5-22.6l13-14.1L278.9,319.8L245.1,353.5z"/>
	<polygon class="st4" points="322.5,129.5 280.8,129.5 280.8,169.5 322.5,169.5 322.5,211.2 362.5,211.2 362.5,169.5 404.2,169.5 
		404.2,129.5 362.5,129.5 362.5,87.8 322.5,87.8 	"/>
</g>
</svg>
